<?xml version="1.0" encoding="utf-8"?>
<svg xmlns="http://www.w3.org/2000/svg" xmlns:xlink="http://www.w3.org/1999/xlink" version= "1.1" width="1696px" height="1213px" viewBox="-308 458 1696 1213">
<g id="layer1">
<g style="fill:rgb(0,151,216); fill-opacity:1.0; stroke-linejoin: miter">
<path d="M-318.06094,449.75955L-318.2662,449.77988L-319.01428,1678.6664L1398.9855,1678.6638L1398.7,449.9788L-318.06094,449.75955 Z"/>
</g>
<g style="fill:rgb(0,0,0); fill-opacity:1.0; stroke-linejoin: miter">
<path d="M230.41345,1088.393L554.5878,1088.3933L878.762,1088.3936Q878.762,1258.0092,878.762,1427.6246Q554.5878,1427.6251,230.41342,1427.6259Q230.41342,1258.0094,230.41345,1088.393"/>
</g>
<g style="fill:rgb(102,102,102); fill-opacity:1.0; stroke-linejoin: miter">
<path d="M242.3024,1170.1343L558.6374,1170.1346L874.97284,1170.1351Q874.97284,1286.3511,874.97296,1402.567Q558.6374,1402.5674,242.3024,1402.5677Q242.3024,1286.3513,242.3024,1170.1343"/>
</g>
<g>
<g style="fill:rgb(0,0,0); fill-opacity:1.0; stroke-linejoin: miter">
<path d="M260.657,1384.1356C259.78055,1383.2593,259.73444,1382.6134,259.73444,1368.452C259.73444,1354.2906,259.78055,1353.6447,260.657,1352.7683C261.53348,1351.892,262.17923,1351.8457,276.34064,1351.8457C290.502,1351.8457,291.14783,1351.892,292.02426,1352.7683C292.90076,1353.6447,292.94687,1354.2906,292.94687,1368.452C292.94687,1382.6135,292.90076,1383.2594,292.02426,1384.1357C291.14783,1385.0123,290.502,1385.0582,276.34064,1385.0581C262.17923,1385.0582,261.53348,1385.0122,260.657,1384.1356 Z"/>
</g>
<g style="fill:rgb(0,0,0); fill-opacity:1.0; stroke-linejoin: miter">
<path d="M301.34222,1384.3202C300.32736,1383.6284,300.32736,1383.5822,300.32736,1368.6365C300.32736,1354.2906,300.3735,1353.6447,301.24994,1352.7683C302.1264,1351.892,302.77216,1351.8457,316.93362,1351.8457C331.09497,1351.8457,331.74075,1351.8918,332.61722,1352.7684C333.49368,1353.6448,333.53973,1354.2906,333.53973,1368.4521C333.53973,1382.6135,333.49368,1383.2594,332.61725,1384.1357C331.74075,1385.0122,331.095,1385.0582,317.02585,1385.0582C304.5251,1385.0582,302.2186,1384.9663,301.34222,1384.3202 Z"/>
</g>
<g style="fill:rgb(0,0,0); fill-opacity:1.0; stroke-linejoin: miter">
<path d="M341.7045,1384.228C341.0126,1383.4438,340.92032,1381.6908,340.92032,1368.3135C340.92032,1353.3218,340.92032,1353.2756,341.93515,1352.5839C342.81158,1351.9382,345.07187,1351.8458,357.43427,1351.8457L371.87244,1351.8457L373.02563,1352.999L374.17886,1354.1522L374.04047,1368.9595C373.90213,1382.9824,373.85596,1383.7666,373.02563,1384.4125C372.2876,1384.9198,369.33533,1385.0582,357.29584,1385.0582C343.50348,1385.0582,342.39645,1385.0123,341.7045,1384.228 Z"/>
</g>
<g style="fill:rgb(0,0,0); fill-opacity:1.0; stroke-linejoin: miter">
<path d="M382.2974,1384.228C381.6055,1383.4438,381.51324,1381.6908,381.51328,1368.3135C381.51324,1353.3218,381.51324,1353.2756,382.52808,1352.5839C383.40448,1351.9382,385.66476,1351.8457,397.93484,1351.8457C411.40436,1351.8457,412.37305,1351.892,413.38785,1352.7222L414.49496,1353.5988L414.63336,1367.6215C414.72562,1375.279,414.63333,1382.0599,414.49493,1382.6134C413.89523,1385.0581,413.98752,1385.0581,397.9348,1385.0582C384.09634,1385.0581,382.98938,1385.0123,382.2974,1384.228 Z"/>
</g>
<g style="fill:rgb(0,0,0); fill-opacity:1.0; stroke-linejoin: miter">
<path d="M422.8903,1384.2279C422.1984,1383.4437,422.10608,1381.6907,422.1061,1368.3134C422.1061,1353.3217,422.1061,1353.2755,423.12094,1352.5837C423.99744,1351.9381,426.25772,1351.8457,438.48175,1351.8457C450.70572,1351.8457,452.9661,1351.9381,453.84253,1352.5837C454.85733,1353.2755,454.85733,1353.3217,454.85733,1368.4058C454.8573,1382.475,454.81116,1383.582,454.02698,1384.2742C453.2428,1384.9662,451.4899,1385.0581,438.38943,1385.0582C424.6893,1385.0582,423.5822,1385.0122,422.8903,1384.2279 Z"/>
</g>
<g style="fill:rgb(0,0,0); fill-opacity:1.0; stroke-linejoin: miter">
<path d="M463.43713,1384.3201C463.022,1383.9513,462.6069,1383.167,462.46844,1382.6134C462.3301,1382.0599,462.23782,1375.279,462.33014,1367.6215L462.46848,1353.5988L463.5756,1352.7222C464.59036,1351.892,465.55914,1351.8457,479.02863,1351.8457C491.29874,1351.8457,493.55902,1351.9381,494.4355,1352.5837C495.4503,1353.2755,495.4503,1353.3217,495.4503,1368.4058C495.45026,1382.4751,495.4041,1383.5822,494.61996,1384.2742C493.83572,1384.9662,492.0829,1385.0582,478.9363,1385.0583C466.11264,1385.0581,464.03683,1384.9662,463.43713,1384.3201 Z"/>
</g>
<g style="fill:rgb(0,0,0); fill-opacity:1.0; stroke-linejoin: miter">
<path d="M503.75333,1384.1357C502.87692,1383.2594,502.83078,1382.6135,502.8308,1368.6826L502.8308,1354.1058L503.984,1352.999L505.09106,1351.8457L519.52936,1351.8457C531.8917,1351.8456,534.152,1351.938,535.02844,1352.5837C536.04315,1353.2755,536.04315,1353.3217,536.04315,1368.4058C536.04315,1382.475,535.99695,1383.582,535.2129,1384.274C534.42865,1384.9662,532.6758,1385.0581,519.52936,1385.0582C505.27554,1385.0582,504.62976,1385.0123,503.75333,1384.1357 Z"/>
</g>
<g style="fill:rgb(0,0,0); fill-opacity:1.0; stroke-linejoin: miter">
<path d="M544.3463,1384.1356C543.46985,1383.2593,543.42377,1382.6134,543.4239,1368.4982L543.4239,1353.7372L544.6232,1352.8143C545.8224,1351.8918,546.376,1351.8456,560.30676,1351.8456C574.19147,1351.8457,574.8372,1351.8918,575.7137,1352.7683C576.5902,1353.6447,576.6363,1354.2905,576.6363,1368.6365C576.6363,1383.582,576.6363,1383.6283,575.6216,1384.3201C574.74506,1384.9662,572.4386,1385.0581,559.9377,1385.0581C545.8686,1385.0581,545.22284,1385.0122,544.3463,1384.1356 Z"/>
</g>
<g style="fill:rgb(0,0,0); fill-opacity:1.0; stroke-linejoin: miter">
<path d="M584.93945,1384.1356C584.0629,1383.2593,584.0167,1382.6134,584.01685,1368.452C584.01685,1354.2905,584.06305,1353.6447,584.93945,1352.7683C585.8158,1351.8918,586.4617,1351.8457,600.62305,1351.8457C614.7843,1351.8457,615.43024,1351.8918,616.3066,1352.7683C617.18304,1353.6447,617.2291,1354.2905,617.2291,1368.452C617.2291,1382.6134,617.18304,1383.2593,616.3066,1384.1356C615.43024,1385.0122,614.7843,1385.0581,600.62305,1385.0581C586.4617,1385.0581,585.8158,1385.0122,584.93945,1384.1356 Z"/>
</g>
<g style="fill:rgb(0,0,0); fill-opacity:1.0; stroke-linejoin: miter">
<path d="M625.5323,1384.1356C624.65594,1383.2593,624.60974,1382.6134,624.60974,1368.452C624.60974,1354.2905,624.65594,1353.6447,625.5323,1352.7683C626.4089,1351.8918,627.0546,1351.8457,641.21594,1351.8457C655.37744,1351.8457,656.0233,1351.8918,656.89966,1352.7683C657.77606,1353.6447,657.8224,1354.2905,657.8224,1368.452C657.8224,1382.6134,657.77606,1383.2594,656.89966,1384.1357C656.0233,1385.0123,655.37744,1385.0582,641.21594,1385.0581C627.0546,1385.0581,626.4089,1385.0122,625.5323,1384.1356 Z"/>
</g>
<g style="fill:rgb(0,0,0); fill-opacity:1.0; stroke-linejoin: miter">
<path d="M665.9868,1384.228C665.295,1383.4438,665.2027,1381.6908,665.2027,1368.3134C665.2027,1353.3217,665.2027,1353.2755,666.2175,1352.5837C667.0942,1351.9381,669.3543,1351.8457,681.71686,1351.8457L696.1551,1351.8456L697.2619,1352.9989L698.4152,1354.1058L698.4152,1368.6825C698.4152,1382.6134,698.369,1383.2593,697.4927,1384.1356C696.6163,1385.0122,695.9704,1385.0581,681.6706,1385.0582C667.78595,1385.0582,666.6789,1385.0123,665.9868,1384.228 Z"/>
</g>
<g style="fill:rgb(0,0,0); fill-opacity:1.0; stroke-linejoin: miter">
<path d="M706.5799,1384.228C705.88794,1383.4438,705.79584,1381.6908,705.79584,1368.3135C705.79584,1353.3217,705.79584,1353.2755,706.81055,1352.5837C707.687,1351.9381,709.9474,1351.8457,722.30975,1351.8457L736.7478,1351.8457L737.9011,1352.999L739.0544,1354.1521L738.91595,1368.9595C738.7776,1382.9825,738.7314,1383.7667,737.9011,1384.4126C737.1631,1384.9198,734.2109,1385.0583,722.17126,1385.0582C708.37897,1385.0582,707.27185,1385.0123,706.5799,1384.228 Z"/>
</g>
<g style="fill:rgb(0,0,0); fill-opacity:1.0; stroke-linejoin: miter">
<path d="M747.1729,1384.228C746.4811,1383.4438,746.3888,1381.6909,746.3888,1368.3136C746.3888,1353.3219,746.3888,1353.2759,747.4036,1352.5839C748.2801,1351.9381,750.5403,1351.8457,762.7644,1351.8457C774.98834,1351.8457,777.2486,1351.9381,778.12506,1352.5839C779.1398,1353.2756,779.1398,1353.3218,779.1398,1368.4058C779.1398,1382.4751,779.0937,1383.5822,778.3095,1384.2742C777.52527,1384.9663,775.7724,1385.0583,762.6721,1385.0583C748.9719,1385.0583,747.86487,1385.0123,747.1729,1384.228 Z"/>
</g>
<g style="fill:rgb(0,0,0); fill-opacity:1.0; stroke-linejoin: miter">
<path d="M787.7657,1384.228C787.07385,1383.4438,786.9816,1381.6908,786.9816,1368.3135L786.9816,1353.2295L788.0887,1352.5376C789.0112,1351.892,792.7477,1351.8457,818.9946,1351.9381C847.9635,1352.0764,848.8862,1352.1226,849.53186,1352.9528C850.03925,1353.6908,850.1776,1356.5969,850.1776,1368.5442C850.1776,1382.6135,850.1314,1383.2594,849.25507,1384.1359C848.3326,1385.0582,847.7329,1385.0582,818.44116,1385.0582C790.0262,1385.0582,788.45764,1385.0123,787.7657,1384.228 Z"/>
</g>
<g style="fill:rgb(0,0,0); fill-opacity:1.0; stroke-linejoin: miter">
<path d="M260.74927,1344.6495C259.73444,1343.9576,259.73444,1343.9115,259.73444,1329.0583C259.73444,1316.9724,259.8728,1314.0204,260.38025,1313.2822C261.026,1312.4521,261.9025,1312.4056,283.3983,1312.2675C304.89407,1312.1752,305.7705,1312.1752,306.83148,1313.0515L307.93857,1313.9281L308.0769,1327.951C308.1692,1335.6085,308.0769,1342.3894,307.93857,1342.943C307.3389,1345.48,308.0769,1345.3877,284.04407,1345.3876C264.62402,1345.3877,261.67184,1345.2955,260.74927,1344.6495 Z"/>
</g>
<g style="fill:rgb(0,0,0); fill-opacity:1.0; stroke-linejoin: miter">
<path d="M316.3339,1344.5573C315.64197,1343.7732,315.5497,1342.0201,315.5497,1328.6431C315.5497,1313.6512,315.5497,1313.6052,316.56458,1312.9132C317.44098,1312.2675,319.74744,1312.1752,332.20206,1312.1752L346.87088,1312.1752L347.79346,1313.3745C348.71606,1314.5739,348.76212,1315.1273,348.76212,1329.0583C348.76212,1342.9431,348.71606,1343.5887,347.83957,1344.4652C346.9631,1345.3416,346.31732,1345.3878,332.0175,1345.3878C318.1329,1345.3876,317.02585,1345.3414,316.3339,1344.5573 Z"/>
</g>
<g style="fill:rgb(0,0,0); fill-opacity:1.0; stroke-linejoin: miter">
<path d="M356.8807,1344.6495C356.46558,1344.2809,356.1427,1343.5887,356.1427,1343.1736C356.1427,1342.7585,356.1427,1335.9775,356.09656,1328.0895C356.09656,1314.0204,356.1427,1313.7896,357.11133,1313.0055C357.98785,1312.2675,359.46393,1312.1752,372.6105,1312.1752L387.09473,1312.175L388.20184,1313.3284L389.355,1314.4352L389.35504,1328.5508C389.35504,1342.4816,389.2166,1344.0961,387.78665,1345.0186C387.50986,1345.2032,380.59067,1345.3878,372.42593,1345.3877C359.55618,1345.3877,357.4804,1345.2955,356.8807,1344.6495 Z"/>
</g>
<g style="fill:rgb(0,0,0); fill-opacity:1.0; stroke-linejoin: miter">
<path d="M397.38135,1344.7422C396.55106,1344.0961,396.50488,1343.4042,396.5049,1329.0122L396.50488,1313.928L397.612,1313.0515C398.6268,1312.2212,399.5955,1312.175,413.11108,1312.1753C426.62674,1312.1753,427.59543,1312.2213,428.61023,1313.0515L429.71735,1313.9281L429.85577,1327.951C429.94797,1335.6085,429.85577,1342.3894,429.71738,1342.9431C429.1177,1345.3878,429.20996,1345.3878,413.1572,1345.3877C401.07162,1345.3877,398.11942,1345.2495,397.38135,1344.7422 Z"/>
</g>
<g style="fill:rgb(0,0,0); fill-opacity:1.0; stroke-linejoin: miter">
<path d="M437.7898,1344.4652C436.91333,1343.5887,436.86722,1342.9431,436.86722,1329.1965C436.86722,1315.0813,437.0056,1313.4668,438.4356,1312.5443C438.71234,1312.3596,445.4932,1312.1752,453.47345,1312.1753C465.9281,1312.1753,468.1884,1312.2675,469.06488,1312.9132C470.07965,1313.6052,470.07965,1313.6512,470.07968,1328.7354C470.07968,1342.8044,470.0336,1343.9116,469.24936,1344.6036C468.46518,1345.2955,466.71228,1345.3877,453.5657,1345.3877C439.31207,1345.3878,438.66626,1345.3414,437.7898,1344.4652 Z"/>
</g>
<g style="fill:rgb(0,0,0); fill-opacity:1.0; stroke-linejoin: miter">
<path d="M478.3828,1344.4652C477.50632,1343.5887,477.4602,1342.9431,477.4602,1328.7815C477.46017,1314.62,477.5063,1313.9742,478.38278,1313.0978C479.25922,1312.2213,479.90503,1312.1753,493.97415,1312.1753C506.4749,1312.1753,508.78137,1312.2675,509.65784,1312.9132C510.6726,1313.6052,510.6726,1313.6511,510.6726,1328.7352C510.6726,1342.8042,510.62646,1343.9114,509.84235,1344.6036C509.05817,1345.2954,507.3053,1345.3877,494.15866,1345.3877C479.90503,1345.3878,479.25922,1345.3414,478.3828,1344.4652 Z"/>
</g>
<g style="fill:rgb(0,0,0); fill-opacity:1.0; stroke-linejoin: miter">
<path d="M518.7912,1344.3729C518.14545,1343.4963,518.0532,1341.1901,518.0532,1328.6892C518.0532,1314.62,518.09924,1313.9741,518.97577,1313.0978C519.8521,1312.2212,520.498,1312.1752,534.65924,1312.175C548.8208,1312.1752,549.4667,1312.2212,550.343,1313.0978C551.2195,1313.9741,551.26556,1314.62,551.26556,1328.9197C551.26556,1342.8042,551.2195,1343.9114,550.4353,1344.6036C549.6512,1345.2954,547.8982,1345.3876,534.52094,1345.3876C519.52936,1345.3877,519.48315,1345.3877,518.7912,1344.3729 Z"/>
</g>
<g style="fill:rgb(0,0,0); fill-opacity:1.0; stroke-linejoin: miter">
<path d="M559.4303,1344.5573C558.73834,1343.7732,558.6462,1342.0201,558.6462,1328.8735C558.6462,1314.62,558.69226,1313.9741,559.5687,1313.0978C560.44525,1312.2212,561.091,1312.1752,575.2524,1312.175C589.41376,1312.1752,590.05963,1312.2212,590.936,1313.0978C591.8125,1313.9741,591.8587,1314.62,591.8587,1328.6891C591.8587,1341.1901,591.7664,1343.4963,591.12054,1344.3729C590.4286,1345.3877,590.3825,1345.3877,575.2986,1345.3877C561.2293,1345.3876,560.12225,1345.3413,559.4303,1344.5573 Z"/>
</g>
<g style="fill:rgb(0,0,0); fill-opacity:1.0; stroke-linejoin: miter">
<path d="M600.0234,1344.5574C599.3314,1343.7733,599.23914,1342.0203,599.23914,1328.643C599.23914,1313.6511,599.23914,1313.6052,600.25397,1312.9132C601.1306,1312.2675,603.4368,1312.1752,615.9375,1312.175C630.0066,1312.175,630.6525,1312.2212,631.529,1313.0978C632.40546,1313.9741,632.45154,1314.62,632.45154,1328.7814C632.45154,1342.943,632.40546,1343.5886,631.529,1344.4651C630.65265,1345.3414,630.0068,1345.3877,615.70703,1345.3877C601.8223,1345.3877,600.7152,1345.3414,600.0234,1344.5574 Z"/>
</g>
<g style="fill:rgb(0,0,0); fill-opacity:1.0; stroke-linejoin: miter">
<path d="M640.6164,1344.5574C639.92444,1343.7733,639.83215,1342.0203,639.83215,1328.643C639.83215,1313.6511,639.83215,1313.6052,640.847,1312.9132C641.72345,1312.2675,643.9837,1312.1752,656.43835,1312.175C664.41864,1312.175,671.1994,1312.3595,671.4763,1312.5441C672.9062,1313.4666,673.04456,1315.081,673.0447,1329.1965C673.0447,1342.943,672.9985,1343.5886,672.1221,1344.4651C671.2456,1345.3414,670.59985,1345.3877,656.3,1345.3877C642.4154,1345.3877,641.30817,1345.3414,640.6164,1344.5574 Z"/>
</g>
<g style="fill:rgb(0,0,0); fill-opacity:1.0; stroke-linejoin: miter">
<path d="M681.16327,1344.6495C680.748,1344.2808,680.3329,1343.4963,680.1944,1342.943C680.056,1342.3893,679.9639,1335.6084,680.056,1327.9509L680.1944,1313.928L681.3015,1313.0515C682.31647,1312.2212,683.2851,1312.1752,696.8007,1312.175C710.31635,1312.175,711.285,1312.2212,712.2999,1313.0514L713.4069,1313.928L713.40704,1329.0122C713.40704,1343.4042,713.36096,1344.0961,712.5305,1344.7421C711.79254,1345.2494,708.84033,1345.3877,696.7545,1345.3876C683.83856,1345.3877,681.76294,1345.2955,681.16327,1344.6495 Z"/>
</g>
<g style="fill:rgb(0,0,0); fill-opacity:1.0; stroke-linejoin: miter">
<path d="M722.1252,1345.0186C720.69525,1344.0961,720.55676,1342.4816,720.55676,1328.5508L720.55676,1314.4352L721.7101,1313.3284L722.81714,1312.175L737.30145,1312.1753C750.448,1312.1753,751.92413,1312.2675,752.80066,1313.0055C753.7232,1313.7896,753.7693,1314.1125,753.7693,1328.0894C753.7693,1335.9775,753.7693,1342.7584,753.7693,1343.1735C753.7693,1343.5887,753.44653,1344.2808,753.03125,1344.6495C752.4316,1345.2955,750.35583,1345.3878,737.48596,1345.3877C729.3213,1345.3878,722.4019,1345.2032,722.1252,1345.0186 Z"/>
</g>
<g style="fill:rgb(0,0,0); fill-opacity:1.0; stroke-linejoin: miter">
<path d="M762.25696,1344.7422C761.4268,1344.0961,761.3806,1343.3119,761.24225,1329.2891L761.1038,1314.4814L762.25696,1313.3285L763.41016,1312.1753L777.84827,1312.1753C790.21063,1312.1753,792.471,1312.2675,793.34735,1312.9132C794.36206,1313.6052,794.36206,1313.6511,794.36206,1328.7814C794.36206,1341.9281,794.26996,1344.0502,793.6242,1344.6495C793.0245,1345.2955,790.9488,1345.3877,778.03284,1345.3878C765.9472,1345.3878,762.9951,1345.2495,762.25696,1344.7422 Z"/>
</g>
<g style="fill:rgb(0,0,0); fill-opacity:1.0; stroke-linejoin: miter">
<path d="M802.942,1344.6495C802.5269,1344.2808,802.11176,1343.4963,801.9734,1342.943C801.83496,1342.3893,801.7427,1335.6084,801.83496,1327.9509L801.9734,1313.928L803.0804,1313.0515C804.1414,1312.1752,805.0179,1312.1752,826.5137,1312.2675C848.0096,1312.4056,848.8861,1312.4521,849.53186,1313.2822C850.03925,1314.0203,850.1775,1316.9723,850.1776,1329.0581C850.1776,1343.9116,850.1776,1343.9578,849.1629,1344.6495C848.24023,1345.2955,845.28815,1345.3878,825.8678,1345.3877C806.3095,1345.3878,803.5879,1345.2955,802.942,1344.6495 Z"/>
</g>
<g style="fill:rgb(0,0,0); fill-opacity:1.0; stroke-linejoin: miter">
<path d="M260.5186,1304.8868C259.8267,1304.1027,259.73444,1302.3497,259.73444,1289.2952C259.73444,1281.223,259.91898,1274.3496,260.1035,1274.0729C261.07217,1272.5969,262.40985,1272.5045,290.17914,1272.5045L317.90228,1272.5045L319.00934,1273.658L320.16257,1274.765L320.16257,1289.3416C320.16257,1303.2722,320.11642,1303.9182,319.23996,1304.7946C318.31744,1305.7173,317.7178,1305.7173,289.81012,1305.7173C262.7328,1305.7173,261.21054,1305.6711,260.5186,1304.8868 Z"/>
</g>
<g style="fill:rgb(0,0,0); fill-opacity:1.0; stroke-linejoin: miter">
<path d="M328.3273,1304.8868C327.63535,1304.1027,327.54312,1302.3497,327.54312,1288.9724C327.54312,1273.9808,327.54312,1273.9346,328.5579,1273.2427C329.43436,1272.5969,331.6946,1272.5045,344.05704,1272.5045L358.49524,1272.5045L359.6023,1273.658L360.75552,1274.7651L360.75552,1289.3416C360.75552,1303.2722,360.70938,1303.9182,359.83298,1304.7946C358.9565,1305.6711,358.31073,1305.7173,344.01093,1305.7173C330.12625,1305.7173,329.01923,1305.6711,328.3273,1304.8868 Z"/>
</g>
<g style="fill:rgb(0,0,0); fill-opacity:1.0; stroke-linejoin: miter">
<path d="M368.92026,1304.8868C368.22833,1304.1027,368.13605,1302.3497,368.13605,1288.9724C368.13605,1273.9807,368.13605,1273.9347,369.15088,1273.2427C370.02728,1272.5969,372.2876,1272.5045,384.64996,1272.5045L399.08807,1272.5045L400.24133,1273.6577L401.39453,1274.811L401.25613,1289.6183C401.11777,1303.6412,401.07162,1304.4257,400.24127,1305.0713C399.50323,1305.5785,396.55103,1305.7172,384.5116,1305.7172C370.7192,1305.7173,369.61215,1305.6711,368.92026,1304.8868 Z"/>
</g>
<g style="fill:rgb(0,0,0); fill-opacity:1.0; stroke-linejoin: miter">
<path d="M409.46695,1304.9791C408.8212,1304.3795,408.72894,1302.2574,408.72894,1289.111C408.72894,1273.9807,408.72894,1273.9346,409.74374,1273.2427C410.6202,1272.5969,412.8805,1272.5045,425.1045,1272.5045C437.32852,1272.5045,439.58884,1272.5969,440.46524,1273.2427C441.48007,1273.9344,441.48007,1273.9805,441.48007,1289.111C441.48004,1302.2574,441.38785,1304.3794,440.742,1304.9791C440.14233,1305.625,438.06653,1305.7173,425.10446,1305.7173C412.14246,1305.7173,410.06668,1305.625,409.46695,1304.9791 Z"/>
</g>
<g style="fill:rgb(0,0,0); fill-opacity:1.0; stroke-linejoin: miter">
<path d="M450.05994,1304.9791C449.41415,1304.3795,449.3219,1302.2574,449.32193,1289.111C449.32193,1273.9807,449.32193,1273.9346,450.33673,1273.2427C451.21317,1272.5969,453.47348,1272.5045,465.69748,1272.5045C477.9215,1272.5045,480.1818,1272.5969,481.05823,1273.2427C482.07306,1273.9344,482.07306,1273.9805,482.07306,1289.0645C482.07303,1303.134,482.02692,1304.2412,481.2427,1304.9331C480.45856,1305.625,478.70566,1305.7173,465.55914,1305.7173C452.7354,1305.7173,450.6596,1305.625,450.05994,1304.9791 Z"/>
</g>
<g style="fill:rgb(0,0,0); fill-opacity:1.0; stroke-linejoin: miter">
<path d="M490.5606,1305.0714C489.7303,1304.4255,489.68417,1303.6412,489.5458,1289.6183L489.40747,1274.8109L490.56064,1273.6577L491.71387,1272.5045L506.15204,1272.5045C518.5144,1272.5045,520.77466,1272.5969,521.6512,1273.2426C522.666,1273.9343,522.666,1273.9803,522.666,1289.0645C522.666,1303.134,522.6198,1304.2411,521.8357,1304.933C521.05145,1305.625,519.29865,1305.7172,506.24432,1305.7173C494.20483,1305.7173,491.29874,1305.5786,490.5606,1305.0714 Z"/>
</g>
<g style="fill:rgb(0,0,0); fill-opacity:1.0; stroke-linejoin: miter">
<path d="M530.9692,1304.7944C530.0925,1303.9181,530.04645,1303.2721,530.0466,1289.3414L530.0466,1274.7649L531.19977,1273.6577L532.3069,1272.5045L546.88324,1272.5045C560.81415,1272.5045,561.4599,1272.5507,562.3364,1273.4271C563.2129,1274.3035,563.259,1274.9496,563.259,1289.2491C563.259,1303.134,563.2129,1304.2411,562.4287,1304.933C561.6446,1305.625,559.8916,1305.7172,546.74493,1305.7172C532.4913,1305.7172,531.8455,1305.671,530.9692,1304.7944 Z"/>
</g>
<g style="fill:rgb(0,0,0); fill-opacity:1.0; stroke-linejoin: miter">
<path d="M571.56213,1304.7944C570.68567,1303.9181,570.63947,1303.2721,570.63947,1289.157C570.63947,1273.2424,570.63947,1273.3348,573.0842,1272.7352C573.6379,1272.5969,580.51105,1272.5045,588.30676,1272.5969C601.7761,1272.7352,602.5602,1272.7814,603.2062,1273.6116C604.2209,1275.0415,604.175,1303.2261,603.11395,1304.7023C602.422,1305.7172,602.3759,1305.7172,587.4303,1305.7172C573.0842,1305.7172,572.4385,1305.671,571.56213,1304.7944 Z"/>
</g>
<g style="fill:rgb(0,0,0); fill-opacity:1.0; stroke-linejoin: miter">
<path d="M611.9706,1304.7023C610.90955,1303.2261,610.86334,1275.0415,611.8783,1273.6116C612.52405,1272.7814,613.3083,1272.7352,626.7777,1272.5969C634.5736,1272.5045,641.44653,1272.5969,642.0,1272.7352C644.44495,1273.3348,644.44495,1273.2426,644.44495,1289.1571C644.44495,1303.2722,644.39886,1303.9182,643.5224,1304.7946C642.646,1305.671,642.0,1305.7172,627.65424,1305.7172C612.7086,1305.7172,612.66254,1305.7172,611.9706,1304.7023 Z"/>
</g>
<g style="fill:rgb(0,0,0); fill-opacity:1.0; stroke-linejoin: miter">
<path d="M652.6096,1304.8867C651.91766,1304.1025,651.82556,1302.3496,651.82556,1289.2031C651.82556,1274.9496,651.87164,1274.3035,652.748,1273.4271C653.6243,1272.5507,654.2703,1272.5046,668.201,1272.5045L682.7778,1272.5046L683.88477,1273.658L685.0379,1274.765L685.0379,1289.3414C685.038,1303.2722,684.9919,1303.9182,684.1155,1304.7946C683.239,1305.671,682.59326,1305.7172,668.2933,1305.7172C654.4088,1305.7172,653.3016,1305.671,652.6096,1304.8867 Z"/>
</g>
<g style="fill:rgb(0,0,0); fill-opacity:1.0; stroke-linejoin: miter">
<path d="M693.20264,1304.8868C692.5107,1304.1025,692.4185,1302.3496,692.4184,1289.2032C692.4184,1274.9495,692.4647,1274.3035,693.34094,1273.4271C694.21747,1272.5507,694.86334,1272.5045,708.7941,1272.5045L723.37067,1272.5046L724.5239,1273.658L725.6771,1274.811L725.53876,1289.6183C725.4003,1303.6412,725.3544,1304.4255,724.52405,1305.0714C723.78577,1305.5786,720.8337,1305.7172,708.7941,1305.7172C695.00165,1305.7172,693.8946,1305.671,693.20264,1304.8868 Z"/>
</g>
<g style="fill:rgb(0,0,0); fill-opacity:1.0; stroke-linejoin: miter">
<path d="M733.7957,1304.887C733.10376,1304.1027,733.01154,1302.3497,733.01154,1288.9723C733.01154,1273.9807,733.01154,1273.9346,734.0262,1273.2426C734.9027,1272.5969,737.1631,1272.5046,749.3871,1272.5045C761.61096,1272.5045,763.87134,1272.5969,764.74774,1273.2426C765.7627,1273.9344,765.7627,1273.9807,765.7627,1289.1108C765.7627,1302.2574,765.6704,1304.3794,765.02454,1304.979C764.425,1305.625,762.34924,1305.7172,749.4333,1305.7172C735.5948,1305.7173,734.4877,1305.671,733.7957,1304.887 Z"/>
</g>
<g style="fill:rgb(0,0,0); fill-opacity:1.0; stroke-linejoin: miter">
<path d="M774.3426,1304.887C773.65063,1304.1028,773.60443,1302.4883,773.6966,1288.8341L773.835,1273.7041L774.9882,1273.1042C775.91077,1272.6431,783.98334,1272.5045,811.7987,1272.5045C847.59436,1272.5045,848.7937,1272.5505,849.8084,1274.0728C849.99304,1274.3495,850.1775,1281.2229,850.1775,1289.3875C850.1775,1303.134,850.1314,1304.2411,849.34717,1304.933C848.5631,1305.671,845.288,1305.7172,811.7987,1305.7172C776.7412,1305.7173,775.0805,1305.671,774.3426,1304.887 Z"/>
</g>
<g style="fill:rgb(0,0,0); fill-opacity:1.0; stroke-linejoin: miter">
<path d="M260.51862,1264.7551C259.8267,1263.9708,259.73444,1262.2179,259.73444,1249.1173C259.73444,1235.4174,259.78058,1234.3102,260.56473,1233.6182C261.34894,1232.88,264.43958,1232.8341,295.29935,1232.8341C323.8528,1232.8341,329.3421,1232.9261,330.12625,1233.4799C330.9566,1234.1256,331.00275,1234.8175,331.00275,1249.1176C331.00275,1261.111,330.86435,1264.2014,330.35693,1264.8014C329.8034,1265.5393,326.80508,1265.5854,295.4839,1265.5854C262.91733,1265.5854,261.21054,1265.5393,260.51862,1264.7551 Z"/>
</g>
<g style="fill:rgb(0,0,0); fill-opacity:1.0; stroke-linejoin: miter">
<path d="M339.16748,1265.0319C338.38327,1264.2478,338.38327,1234.1716,339.16748,1233.3875C339.95166,1232.6033,370.02728,1232.6034,370.81152,1233.3876C371.5957,1234.1719,371.5957,1264.2478,370.8115,1265.0319C370.02728,1265.8159,339.95166,1265.8159,339.16748,1265.0319 Z"/>
</g>
<g style="fill:rgb(0,0,0); fill-opacity:1.0; stroke-linejoin: miter">
<path d="M379.7604,1265.0319C378.97626,1264.2478,378.97626,1234.1719,379.7604,1233.3876C380.54462,1232.6034,410.6202,1232.6033,411.4044,1233.3875C412.18854,1234.1716,412.18854,1264.2478,411.4044,1265.0319C410.6202,1265.8159,380.54462,1265.8159,379.7604,1265.0319 Z"/>
</g>
<g style="fill:rgb(0,0,0); fill-opacity:1.0; stroke-linejoin: miter">
<path d="M420.07654,1264.5704C419.43076,1263.6942,419.33844,1261.4337,419.33844,1249.2096C419.33844,1236.9855,419.43076,1234.7253,420.07654,1233.8489C420.76846,1232.8341,420.81454,1232.8341,435.9447,1232.8341C449.09128,1232.8341,451.21317,1232.9261,451.81284,1233.5719C452.45862,1234.1719,452.55093,1236.2476,452.55093,1249.2096C452.55093,1262.1719,452.45862,1264.2478,451.81284,1264.847C451.21317,1265.4932,449.09128,1265.5854,435.9447,1265.5852C420.81454,1265.5854,420.76846,1265.5854,420.07654,1264.5704 Z"/>
</g>
<g style="fill:rgb(0,0,0); fill-opacity:1.0; stroke-linejoin: miter">
<path d="M460.66946,1264.5704C460.02365,1263.6942,459.93143,1261.4337,459.93143,1249.2096C459.93143,1236.9855,460.02365,1234.7253,460.66946,1233.8489C461.36136,1232.8341,461.40756,1232.8341,476.53763,1232.8341C489.6842,1232.8341,491.8061,1232.9261,492.4058,1233.5719C493.05164,1234.1719,493.14392,1236.2476,493.14392,1249.2097C493.14392,1262.172,493.05164,1264.2478,492.4058,1264.847C491.8061,1265.493,489.6842,1265.5854,476.53763,1265.5854C461.40756,1265.5854,461.36136,1265.5854,460.66946,1264.5704 Z"/>
</g>
<g style="fill:rgb(0,0,0); fill-opacity:1.0; stroke-linejoin: miter">
<path d="M501.26242,1264.5704C500.6166,1263.6942,500.5244,1261.4337,500.5244,1249.2097C500.5244,1236.9857,500.6166,1234.7253,501.26242,1233.8489C501.95435,1232.8341,502.00052,1232.8341,517.0844,1232.8341C531.15356,1232.8341,532.2607,1232.88,532.95264,1233.6643C533.64453,1234.4484,533.7368,1236.2013,533.7368,1249.302C533.7368,1263.002,533.6906,1264.1091,532.90656,1264.8011C532.1223,1265.493,530.3693,1265.5852,516.9922,1265.5852C502.00052,1265.5854,501.95435,1265.5854,501.26242,1264.5704 Z"/>
</g>
<g style="fill:rgb(0,0,0); fill-opacity:1.0; stroke-linejoin: miter">
<path d="M541.90155,1264.7549C541.2097,1263.9708,541.1173,1262.2178,541.1173,1249.1176C541.1173,1235.4172,541.16364,1234.31,541.9477,1233.618C542.7318,1232.9261,544.4848,1232.834,557.81573,1232.834C571.7465,1232.834,572.85364,1232.88,573.5456,1233.6642C574.2374,1234.4484,574.3297,1236.2013,574.3297,1249.302C574.3297,1263.002,574.2836,1264.1091,573.4994,1264.8011C572.71515,1265.4929,570.96246,1265.5852,557.6312,1265.5852C543.7007,1265.5852,542.59344,1265.5392,541.90155,1264.7549 Z"/>
</g>
<g style="fill:rgb(0,0,0); fill-opacity:1.0; stroke-linejoin: miter">
<path d="M582.4944,1264.7549C581.8024,1263.9708,581.71027,1262.2178,581.71027,1249.1172C581.71027,1235.4172,581.7565,1234.31,582.5406,1233.6179C583.32477,1232.9259,585.07764,1232.8339,598.4551,1232.834C613.44666,1232.834,613.4928,1232.834,614.18475,1233.8486C614.8305,1234.7251,614.9228,1236.9855,614.9228,1249.2096C614.9228,1261.4335,614.8305,1263.694,614.18475,1264.5703C613.4928,1265.5852,613.44666,1265.5852,598.3628,1265.5852C584.2936,1265.5852,583.18646,1265.5391,582.4944,1264.7549 Z"/>
</g>
<g style="fill:rgb(0,0,0); fill-opacity:1.0; stroke-linejoin: miter">
<path d="M623.0413,1264.847C622.3954,1264.2476,622.30316,1262.1719,622.30316,1249.2094C622.30316,1236.2474,622.3954,1234.1715,623.0413,1233.5719C623.641,1232.9259,625.7629,1232.834,638.9096,1232.834C654.0396,1232.834,654.0858,1232.834,654.77765,1233.8488C655.4234,1234.7252,655.5158,1236.9854,655.5158,1249.2094C655.5158,1261.4335,655.4234,1263.6942,654.77765,1264.5704C654.0858,1265.5854,654.0396,1265.5854,638.9096,1265.5853C625.7629,1265.5852,623.641,1265.4929,623.0413,1264.847 Z"/>
</g>
<g style="fill:rgb(0,0,0); fill-opacity:1.0; stroke-linejoin: miter">
<path d="M663.3575,1264.7089C663.0808,1264.1091,662.89624,1258.389,662.89624,1249.2094C662.89624,1240.03,663.0808,1234.31,663.3575,1233.7103C663.8188,1232.88,664.51074,1232.8339,679.22577,1232.834C692.972,1232.834,694.67865,1232.9261,695.2324,1233.618C695.7397,1234.2179,695.8782,1237.3083,695.8782,1249.2096C695.8782,1261.1111,695.7397,1264.2014,695.2324,1264.8011C694.67865,1265.493,692.972,1265.5853,679.22577,1265.5854C664.51074,1265.5853,663.8188,1265.5392,663.3575,1264.7089 Z"/>
</g>
<g style="fill:rgb(0,0,0); fill-opacity:1.0; stroke-linejoin: miter">
<path d="M704.0427,1265.032C703.6277,1264.6165,703.48926,1260.4651,703.48926,1249.2096C703.48926,1237.9543,703.6277,1233.8027,704.0427,1233.3875C704.82697,1232.6033,734.9027,1232.6033,735.6869,1233.3875C736.471,1234.1718,736.471,1264.2477,735.6869,1265.032C734.9027,1265.8159,704.82697,1265.8159,704.0427,1265.032 Z"/>
</g>
<g style="fill:rgb(0,0,0); fill-opacity:1.0; stroke-linejoin: miter">
<path d="M744.6358,1265.032C744.2207,1264.6165,744.08234,1260.5114,744.08234,1249.3942C744.08234,1236.2936,744.1745,1234.1718,744.8204,1233.5719C745.4661,1232.9261,750.8172,1232.8339,797.08356,1232.8339C846.44104,1232.8339,848.70154,1232.8799,849.3934,1233.6641C850.0853,1234.4482,850.1775,1236.2012,850.1775,1249.3019C850.1775,1263.002,850.1314,1264.1091,849.34717,1264.8011C848.5631,1265.5391,844.2732,1265.5852,796.8531,1265.5852C757.2751,1265.5853,745.0511,1265.4469,744.6358,1265.032 Z"/>
</g>
<g style="fill:rgb(0,0,0); fill-opacity:1.0; stroke-linejoin: miter">
<path d="M260.657,1225.4534C259.78058,1224.577,259.73444,1223.931,259.73444,1209.7697C259.73444,1195.6083,259.78055,1194.9623,260.65698,1194.0858C261.53345,1193.2094,262.17923,1193.1633,283.8595,1193.1633C305.955,1193.1633,306.18564,1193.1633,307.06207,1194.132C307.89243,1195.0546,307.93857,1195.9773,307.93857,1209.8618L307.93857,1224.623L306.83148,1225.4995C305.81665,1226.3298,304.75568,1226.3759,283.67502,1226.376C262.17923,1226.3759,261.53348,1226.33,260.657,1225.4534 Z"/>
</g>
<g style="fill:rgb(0,0,0); fill-opacity:1.0; stroke-linejoin: miter">
<path d="M316.56458,1225.6381C315.54974,1224.946,315.54974,1224.9001,315.5497,1209.8158C315.5497,1195.7466,315.59586,1194.6395,316.38004,1193.9478C317.16418,1193.2555,318.9171,1193.1635,331.97137,1193.1633C340.04382,1193.1633,346.91702,1193.3479,347.19376,1193.5325C348.62372,1194.4551,348.76212,1196.0693,348.76212,1210.0001L348.76212,1224.1157L347.60895,1225.2229L346.50183,1226.376L332.06363,1226.376C319.7013,1226.376,317.44098,1226.2838,316.56458,1225.6381 Z"/>
</g>
<g style="fill:rgb(0,0,0); fill-opacity:1.0; stroke-linejoin: miter">
<path d="M357.15753,1225.6381C356.1427,1224.946,356.1427,1224.946,356.14267,1209.7697C356.14267,1194.5935,356.14267,1194.5935,357.1575,1193.9015C358.08002,1193.2555,361.03226,1193.1635,380.12943,1193.1633C399.22647,1193.1633,402.17874,1193.2555,403.10126,1193.9015C404.1161,1194.5935,404.1161,1194.5935,404.1161,1209.7697C404.1161,1224.946,404.1161,1224.946,403.1013,1225.6381C402.17877,1226.2838,399.2265,1226.376,380.12943,1226.376C361.03226,1226.376,358.08005,1226.2838,357.15753,1225.6381 Z"/>
</g>
<g style="fill:rgb(0,0,0); fill-opacity:1.0; stroke-linejoin: miter">
<path d="M412.64984,1225.2229L411.49664,1224.1157L411.49664,1209.862C411.49664,1196.1157,411.54272,1195.5621,412.46527,1194.3628L413.38785,1193.1633L543.56213,1193.1633C615.1534,1193.1633,673.967,1193.3478,674.2438,1193.5322C675.67377,1194.4551,675.8121,1196.0692,675.8121,1210.0L675.8122,1224.1156L674.65906,1225.2228L673.55194,1226.376L543.6545,1226.376L413.75693,1226.376L412.64984,1225.2229 Z"/>
</g>
<g style="fill:rgb(0,0,0); fill-opacity:1.0; stroke-linejoin: miter">
<path d="M681.43994,1225.6378C680.425,1224.9459,680.425,1224.9,680.425,1209.8157C680.425,1195.7465,680.4712,1194.6394,681.2553,1193.9476C682.0395,1193.2555,683.7925,1193.1633,696.8929,1193.1633C710.593,1193.1633,711.70013,1193.2094,712.3921,1193.9935C713.08405,1194.7777,713.1763,1196.5306,713.1763,1209.908C713.1763,1224.9,713.1763,1224.9459,712.16144,1225.6378C711.285,1226.2836,709.0247,1226.376,696.8007,1226.376C684.5767,1226.376,682.31647,1226.2837,681.43994,1225.6378 Z"/>
</g>
<g style="fill:rgb(0,0,0); fill-opacity:1.0; stroke-linejoin: miter">
<path d="M722.03284,1225.6378C721.0181,1224.9459,721.0181,1224.9,721.0181,1209.8156C721.0181,1195.7465,721.06433,1194.6394,721.8484,1193.9474C722.6326,1193.2555,724.3855,1193.1633,737.48584,1193.1633C751.18604,1193.1633,752.2931,1193.2094,752.98505,1193.9935C753.6771,1194.7777,753.76917,1196.5306,753.76917,1209.908C753.76917,1224.9,753.76917,1224.9459,752.75446,1225.6378C751.878,1226.2836,749.61755,1226.376,737.3937,1226.376C725.1697,1226.376,722.9093,1226.2836,722.03284,1225.6378 Z"/>
</g>
<g style="fill:rgb(0,0,0); fill-opacity:1.0; stroke-linejoin: miter">
<path d="M762.6259,1225.6378C761.61096,1224.9459,761.61096,1224.9459,761.61096,1209.7695C761.61096,1194.5933,761.61096,1194.5933,762.6258,1193.9014C763.54846,1193.2555,766.5007,1193.1633,785.68994,1193.1633C807.1396,1193.1632,807.78546,1193.2094,808.6618,1194.0858C809.53815,1194.9623,809.5845,1195.608,809.5845,1209.7694C809.5845,1223.9308,809.53827,1224.5768,808.6618,1225.4534C807.7856,1226.3296,807.1396,1226.3757,785.69006,1226.376C766.5007,1226.376,763.54846,1226.2836,762.6259,1225.6378 Z"/>
</g>
<g style="fill:rgb(0,0,0); fill-opacity:1.0; stroke-linejoin: miter">
<path d="M817.88776,1225.4534C817.01117,1224.5769,816.9651,1223.9308,816.9651,1209.7695C816.9651,1195.608,817.01117,1194.9623,817.88763,1194.0858C818.76416,1193.2094,819.4099,1193.1632,833.57117,1193.1631C847.7328,1193.1631,848.3784,1193.2092,849.2548,1194.0857C850.1313,1194.9623,850.1775,1195.608,850.1775,1209.7694C850.1775,1223.9308,850.1314,1224.5768,849.25494,1225.4532C848.3784,1226.3297,847.7328,1226.3757,833.5713,1226.3757C819.4099,1226.3757,818.76416,1226.3298,817.88776,1225.4534 Z"/>
</g>
</g>
<g style="fill:rgb(241,183,172); fill-opacity:1.0; stroke-linejoin: miter">
<path d="M311.64444,1368.0255L311.68494,1368.0309Q311.7861,1368.0249,311.95877,1368.3514Q312.11108,1368.6703,312.26578,1369.3044L312.36545,1369.8723L312.4137,1370.4415L312.41354,1371.0001L312.3681,1371.537L312.28018,1372.0398L312.15292,1372.4972L311.98935,1372.8976L311.7925,1373.2294L311.5653,1373.4806L311.31085,1373.6399Q310.9411,1373.7267,310.93546,1373.6895Q310.1863,1373.5966,310.42883,1371.4816Q310.60345,1370.2898,311.0382,1369.0004Q311.37665,1368.0155,311.64444,1368.0255 M374.4929,1246.8761L374.0241,1246.8889Q368.55176,1247.6537,366.16187,1251.4285Q366.27423,1248.2583,358.24612,1279.8741Q341.92117,1283.2734,324.00507,1322.2782Q322.6368,1323.9083,320.86856,1323.7252Q318.49823,1320.3474,312.68576,1319.7867Q310.30554,1319.6277,308.16223,1322.9121L298.62073,1339.624Q293.83875,1354.3698,286.5323,1368.4408Q277.613,1418.3516,278.6258,1422.2515Q279.16095,1467.6305,281.06842,1477.1577Q281.1487,1484.1876,290.22714,1508.024L291.13577,1514.4489L287.9114,1549.6301Q286.11096,1563.2284,282.12814,1575.6738L253.92639,1661.4117L320.51334,1678.6649L346.06537,1678.6658Q366.5198,1564.7683,381.8326,1541.089Q400.38525,1531.3663,445.56677,1497.592Q470.1238,1474.7267,490.0581,1461.7612L499.2352,1453.0675L518.0813,1440.1469Q521.8798,1437.5133,522.67883,1433.4882Q521.02075,1420.1862,503.12238,1423.5599Q493.21594,1426.8536,478.08252,1434.413L446.02478,1453.7848Q439.33496,1457.3425,434.41556,1458.0366Q429.98492,1458.5013,428.40475,1457.5464L418.07886,1446.6473Q408.41498,1440.857,406.79117,1406.6979L407.64774,1380.8011Q415.7668,1311.2725,414.88498,1296.3558Q414.79117,1269.1244,410.67752,1266.5636Q402.92395,1255.8304,393.7987,1266.2942Q392.9698,1268.3665,392.13696,1274.7795Q389.16464,1310.1323,388.44852,1311.1516L382.42355,1334.404Q379.92914,1355.9851,376.2326,1371.5316Q373.58673,1390.4381,367.21655,1378.6162L378.82446,1304.8698L384.42044,1276.7682L386.14127,1262.3937Q387.51398,1249.2797,374.4929,1246.8761 Z"/>
</g>
<g style="fill:rgb(255,255,255); fill-opacity:1.0; stroke-linejoin: miter">
<path d="M276.32553,1543.1305L245.74422,1662.6467L308.3307,1678.6649L371.71777,1678.6659L398.53992,1574.2894L276.32553,1543.1305 Z"/>
</g>
<g style="fill:rgb(0,0,0); fill-opacity:1.0; stroke-linejoin: miter">
<path d="M244.27881,1569.8046L243.96005,1570.0028L216.14944,1678.6648L396.9763,1678.6655L413.7186,1613.1708L244.27881,1569.8046 Z"/>
</g>
<g style="fill:rgb(241,183,172); fill-opacity:1.0; stroke-linejoin: miter">
<path d="M761.3009,1672.5542C760.8929,1670.9795,760.0079,1665.5369,759.17377,1660.2917C756.53345,1642.8055,748.23566,1603.8889,741.4267,1577.61C735.9477,1556.8682,733.7396,1549.5629,730.12115,1541.6785C724.9175,1530.1079,722.924,1527.6831,717.78094,1526.075C711.6245,1524.2042,697.29,1514.6847,679.61285,1500.7795C676.832,1498.559,671.32477,1494.7345,667.3338,1492.303C663.34265,1489.871,656.1915,1484.1615,651.3442,1479.6406C640.3557,1469.2543,634.9177,1464.8862,624.37726,1457.8499C619.78845,1454.7328,614.6496,1450.7075,613.0788,1448.699C611.50824,1446.6906,607.98016,1443.6133,605.3011,1441.7867C602.52386,1439.9858,597.3156,1436.5038,593.6454,1434.0941C585.3863,1428.5665,583.46576,1426.0187,584.0459,1421.7719C584.8561,1415.5753,592.68994,1411.76,601.1609,1413.241C608.8662,1414.6053,639.57056,1429.3363,645.187,1434.3932C646.5281,1435.5157,651.8605,1439.0707,657.16364,1442.1075C666.1116,1447.456,672.8111,1449.3966,677.73206,1448.1215C679.2084,1447.739,688.5667,1437.6473,689.8029,1435.1212C690.2404,1434.3776,691.7024,1432.3179,693.1426,1430.5796C694.9981,1428.4183,696.3474,1424.7076,697.38336,1418.9779C699.26575,1408.4071,700.38324,1394.884,699.86273,1388.8221C699.619,1386.2595,699.4046,1381.3785,699.3504,1377.9268C699.2712,1371.5402,697.60803,1352.9606,695.57605,1337.4172C693.78107,1323.5988,692.5873,1310.8843,692.47546,1303.561C692.3448,1299.8138,692.116,1293.2562,691.8577,1289.0168C691.4106,1279.9951,692.41504,1264.8206,693.85913,1260.6654C695.11,1256.9802,699.485,1252.3806,702.4375,1251.6156C706.07916,1250.6721,711.2548,1253.217,712.86194,1256.5817C713.6164,1258.2767,714.70856,1264.9259,715.13446,1271.4325C717.2339,1297.776,717.9987,1303.5646,721.2884,1313.425C723.4419,1320.1141,724.77527,1326.0709,725.3755,1332.8468C726.67487,1346.3744,732.2993,1372.5402,734.0053,1373.0433C735.9589,1373.6927,738.84985,1371.473,739.44434,1368.9034C739.7545,1367.6678,738.3707,1358.6787,736.4143,1349.1025C734.3344,1339.4534,732.7283,1330.4169,732.6664,1328.9624C732.2629,1322.1348,726.9895,1288.0012,725.1827,1281.4323C724.03864,1277.4226,722.3594,1268.5098,721.41254,1261.6132C719.44275,1247.5247,720.43854,1242.8552,726.2019,1239.1561C730.2483,1236.5323,733.9225,1236.5254,737.8151,1238.9828C740.7164,1240.8572,740.96783,1241.4219,744.61456,1255.4966L748.4146,1270.1616L752.42035,1271.4342C758.9483,1273.5237,771.6567,1288.926,776.86395,1300.9156C779.1014,1305.9022,781.58655,1311.0352,782.4356,1312.2856C784.05743,1314.4912,786.6238,1314.6665,787.2473,1312.6141C787.41504,1312.0458,789.3545,1311.0178,791.4213,1310.4822C795.85034,1309.3347,797.1406,1310.2609,801.2002,1317.8213C802.7014,1320.3733,805.1068,1324.7916,806.7576,1327.5148C808.40845,1330.2379,810.4236,1335.1777,811.26495,1338.4253C812.1066,1341.6735,814.4972,1347.2507,816.5486,1350.7101C819.679,1356.3058,820.4115,1358.322,821.515,1366.2288C822.29785,1371.2769,824.1224,1382.7778,825.7539,1391.9127C827.5496,1402.8961,828.3066,1410.6821,827.9487,1414.976C827.70776,1418.5044,827.4002,1428.6672,827.37695,1437.4955C827.26764,1462.2063,825.2612,1475.5404,819.77673,1488.8292C815.0876,1499.9172,814.6568,1504.3351,816.5065,1518.7701C817.45685,1526.0862,818.34143,1534.3641,818.5377,1537.1492C819.0979,1547.8223,823.0762,1563.1761,831.5437,1587.345C836.1459,1600.6471,841.56036,1616.6787,843.5389,1623.0986C845.5173,1629.5178,848.381,1638.5433,849.9258,1643.2898L852.73486,1651.6993L807.36194,1663.4556L761.9894,1675.2113L761.3009,1672.5542 Z M795.9924,1360.5531C795.3548,1358.0923,794.9576,1357.7751,794.5491,1359.0369C793.7798,1361.3363,794.54486,1364.2892,795.8243,1363.9578C796.4146,1363.8048,796.42584,1362.2263,795.9924,1360.5531 Z"/>
</g>
<g style="fill:rgb(255,255,255); fill-opacity:1.0; stroke-linejoin: miter">
<path d="M830.33545,1533.4181L708.12115,1564.5767L737.43933,1678.6643L760.38257,1678.6653L860.9169,1652.9344L830.33545,1533.4181 Z"/>
</g>
<g style="fill:rgb(0,0,0); fill-opacity:1.0; stroke-linejoin: miter">
<path d="M862.3823,1560.0924L692.9425,1603.4586L712.16785,1678.6644L892.9753,1678.6653L862.3823,1560.0924 Z"/>
</g>
<g style="fill:rgb(0,0,0); fill-opacity:1.0; stroke-linejoin: miter">
<path d="M232.42204,689.00757L554.5625,689.0079L876.7032,689.0082L876.70306,1100.9054Q554.56256,1100.9059,232.42203,1100.9064Q232.42206,894.95715,232.42204,689.00757"/>
</g>
<g style="fill:rgb(162,203,238); fill-opacity:1.0; stroke-linejoin: miter">
<path d="M262.48962,708.2307L554.5626,708.2312L846.63544,708.2317Q846.63544,891.50726,846.6353,1074.7826Q554.56256,1074.7831,262.48956,1074.7836Q262.4896,891.50726,262.48962,708.2307"/>
</g>
<g style="fill:rgb(0,0,0); fill-opacity:0.08235294; stroke-linejoin: miter">
<path d="M302.7413,771.49304L752.9766,771.49475L752.9766,804.9805L302.7413,804.9821L302.7413,771.49304"/>
</g>
<g style="fill:rgb(0,0,0); fill-opacity:1.0; stroke-linejoin: miter">
<path d="M307.18527,775.6268L308.30136,775.6269L309.41748,775.62695Q309.41748,787.8513,309.41748,800.0757Q308.30136,800.07574,307.18527,800.07587Q307.18527,787.8513,307.18527,775.6268"/>
</g>
<g style="fill:rgb(255,254,254); fill-opacity:1.0; stroke-linejoin: miter">
<path d="M979.20447,1258.6973L1133.2616,1258.6978L1287.319,1258.6982Q1287.319,1439.5585,1287.319,1620.4183Q1133.2616,1620.419,979.20447,1620.4194Q979.20447,1439.5585,979.20447,1258.6973"/>
</g>
<g style="fill:rgb(0,0,0); fill-opacity:1.0; stroke-linejoin: miter">
<path d="M171.12074,1588.4431L39.648228,1588.4434L39.648045,1375.3359L171.12056,1375.3367L171.12074,1588.4431 Z M95.1538,1610.082C95.15392,1604.2231,99.85917,1599.4702,105.664474,1599.4698C111.471756,1599.4698,116.175224,1604.223,116.175224,1610.082C116.175224,1615.939,111.47188,1620.7001,105.664474,1620.7001C99.85929,1620.6921,95.1538,1615.939,95.1538,1610.082 M179.94194,1619.7131L179.9598,1619.7136L179.95937,1364.321L179.95937,1364.3191L179.95937,1364.2675L179.9554,1364.2681C179.92767,1358.4363,175.19649,1353.7172,169.35542,1353.7172C169.3138,1353.7172,169.27995,1353.7212,169.2424,1353.7212L169.2424,1353.7172L145.42348,1353.7178L75.934944,1353.717L41.41294,1353.7175C35.57984,1353.721,30.852848,1358.4404,30.820919,1364.2673L30.819004,1364.268L30.819187,1619.7109L30.835056,1619.7114C30.831104,1619.8223,30.819187,1619.9314,30.819187,1620.0465C30.819187,1625.7606,35.621895,1630.3945,41.548313,1630.3945C41.63564,1630.3945,41.72105,1630.3826,41.80838,1630.3802L41.80838,1630.3944L169.50069,1630.3953L169.50069,1630.3947C175.2664,1630.3947,179.95793,1625.7626,179.95775,1620.0466C179.9598,1619.9336,179.94583,1619.8221,179.94194,1619.7131"/>
</g>
<g style="fill:rgb(255,255,255); fill-opacity:1.0; stroke-linejoin: miter">
<path d="M171.12056,1375.3362L171.12074,1588.4431L39.648228,1588.4434L39.648045,1375.3359 Z"/>
</g>
<g style="fill:rgb(161,154,137); fill-opacity:1.0; stroke-linejoin: miter">
<path d="M105.664474,1599.4698C111.471756,1599.4698,116.175224,1604.223,116.175224,1610.082C116.175224,1615.939,111.47188,1620.7001,105.664474,1620.7001C99.85929,1620.6921,95.1538,1615.939,95.1538,1610.082C95.15392,1604.2231,99.85917,1599.4702,105.664474,1599.4698 Z"/>
</g>
</g>
</svg>